<svg width="174" height="25" fill="none" xmlns="http://www.w3.org/2000/svg"><g clip-path="url(#clip0)" fill="#369CB7"><path d="M42.113 6.039c-1.722 0-3.145.748-4.143 1.971V6.338h-3.245v17.47h3.245v-6.414c.998 1.223 2.42 1.972 4.143 1.972 3.544 0 6.19-2.87 6.19-6.664 0-3.793-2.646-6.663-6.19-6.663zm-.65 10.182c-1.996 0-3.493-1.522-3.493-3.519 0-1.996 1.497-3.519 3.494-3.519 2.021 0 3.494 1.523 3.494 3.52 0 1.996-1.473 3.518-3.494 3.518zm39.271-.299c-.699 0-1.073-.4-1.073-1.073V6.338h-3.244V8.01c-.999-1.223-2.421-1.971-4.143-1.971-3.544 0-6.215 2.87-6.215 6.663 0 3.794 2.67 6.664 6.215 6.664 1.847 0 3.369-.874 4.367-2.296.474 1.322 1.622 1.996 3.42 1.996h.923v-3.144h-.25zm-7.837.3c-1.996 0-3.494-1.523-3.494-3.52 0-1.996 1.498-3.519 3.494-3.519 2.022 0 3.52 1.523 3.52 3.52 0 1.996-1.498 3.518-3.52 3.518zm16.433 3.144c3.394 0 6.04-2.171 6.663-5.191h-3.444c-.55 1.223-1.747 2.046-3.22 2.046-1.996 0-3.494-1.522-3.494-3.519 0-1.996 1.498-3.519 3.494-3.519 1.473 0 2.67.824 3.22 2.047h3.444c-.624-3.02-3.27-5.191-6.664-5.191-3.893 0-6.838 2.87-6.838 6.663 0 3.794 2.945 6.664 6.838 6.664zm16.148-10.058v-2.97h-2.945V2.944h-3.07v2.37c0 .675-.349 1.024-1.023 1.024h-1.173v2.97h2.022v5.74c0 2.62 1.522 4.018 4.442 4.018h1.747v-2.97h-1.273c-1.048 0-1.672-.599-1.672-1.597V9.308h2.945zm4.379-4.842c1.148 0 2.047-.873 2.047-2.021s-.899-2.022-2.047-2.022c-1.148 0-2.046.874-2.046 2.022 0 1.148.898 2.021 2.046 2.021zm-1.622 14.6h3.245V6.338h-3.245v12.728zm14.122-9.758v-2.97h-2.945V2.944h-3.07v2.37c0 .675-.35 1.024-1.023 1.024h-1.173v2.97h2.021v5.74c0 2.62 1.523 4.018 4.443 4.018h1.747v-2.97h-1.273c-1.048 0-1.672-.599-1.672-1.597V9.308h2.945zm16.083 6.614c-.674 0-1.073-.4-1.073-1.073V10.98c0-2.995-1.972-4.941-4.967-4.941-1.672 0-3.069.673-4.043 1.971V1.097h-3.244v17.97h3.244v-6.989c0-1.747 1.198-2.895 2.995-2.895 1.672 0 2.77 1.123 2.77 2.845v3.52c0 2.32 1.248 3.518 3.669 3.518h.924v-3.144h-.275zm3.997-11.456c1.148 0 2.047-.873 2.047-2.021s-.899-2.022-2.047-2.022c-1.148 0-2.046.874-2.046 2.022 0 1.148.898 2.021 2.046 2.021zm-1.622 14.6h3.244V6.338h-3.244v12.728zm19.961-3.144c-.674 0-1.073-.4-1.073-1.073V10.98c0-2.995-1.972-4.941-4.967-4.941-1.672 0-3.07.648-4.043 1.871V6.338h-3.244v12.728h3.244v-6.988c0-1.747 1.198-2.895 2.995-2.895 1.672 0 2.77 1.123 2.77 2.845v3.52c0 2.32 1.248 3.518 3.669 3.518h.924v-3.144h-.275z"/><path fill-rule="evenodd" clip-rule="evenodd" d="M55.89 6.5a5.241 5.241 0 00-.051-.242 4.058 4.058 0 00-.411-1.082c-.214-.37-.68-.985-1.527-1.122-.853-.139-1.57.29-2.08.754-.496.451-.927 1.024-1.02 1.733-.102.776.237 1.372.58 1.735.32.339.694.54.924.648a3.72 3.72 0 00.382.152l-2.27 10.722 2.713.574 2.353-11.114 5.424.223c-.165.291-.336.601-.506.92-.422.794-.855 1.676-1.173 2.496-.289.745-.59 1.694-.505 2.51.113 1.069.427 2.169 1.36 3.058.889.846 2.163 1.33 3.79 1.628l1.365.25.499-2.729-1.364-.25c-1.422-.26-2.065-.61-2.377-.907-.267-.255-.438-.609-.515-1.34v.001s-.006-.075 0-.136c.007-.067.027-.108.054-.223.055-.233.147-.521.278-.858.262-.675.638-1.448 1.037-2.197a44.818 44.818 0 011.609-2.765l.001-.003a1.383 1.383 0 00-.032-1.539 1.386 1.386 0 00-1.108-.592l-7.43-.306z"/><path d="M165.808.978h-2.968v17.97h2.968v-3.772c.731 2.562 3.419 3.86 6.204 4.37l1.364.25.499-2.728-1.364-.25c-2.836-.518-4.124-1.883-4.124-3.342 0-.38.116-.9.36-1.527a13.29 13.29 0 01.904-1.832 21.393 21.393 0 011.243-1.89l.082-.11.02-.026.004-.005.85-1.095 1.389-1.576h-3.791l-.644.977-.008.011-.029.038-.102.136a24.439 24.439 0 00-1.411 2.146 16.088 16.088 0 00-1.093 2.224 8.358 8.358 0 00-.353 1.201V.978z"/></g><path d="M9.946 18.312c-.46-.763-1.08-1.335-1.772-1.863-.716-.545-1.499-1.108-2.35-1.391-.79-.26-1.763-.158-2.545.085-.756.233-1.3.704-1.586 1.476-.288.775-.357 1.536.268 2.148.571.56 1.417.926 2.192.987.231.019.837.06 1.001-.148.19-.24.131-.902.071-1.166-.168-.746-.915-1.366-1.55-.738-.652.646-1.53-.506-.882-1.147.712-.705 1.819-.75 2.643-.203.827.551 1.226 1.553 1.227 2.542 0 1.01-.316 1.902-1.312 2.192-.955.278-1.996.103-2.9-.306-.855-.389-1.684-.992-2.12-1.874-.451-.909-.27-2.02.085-2.922.782-1.987 2.896-2.635 4.823-2.514 1.199.077 2.303.768 3.279 1.455.957.674 1.9 1.45 2.518 2.481.48.793-.61 1.707-1.09.906zm17.538-8.051c.194 1.683-.502 3.115-1.556 3.192-1.054.08-2.067-1.22-2.261-2.902-.194-1.683.502-3.111 1.556-3.192 1.054-.078 2.067 1.22 2.261 2.902z" fill="#369CB7"/><path d="M7.828 11.73c0 5.02 4.16 8.382 9.216 8.382 5.056 0 8.979-2.674 9.085-8.381.095-5.017-4.097-9.09-9.149-9.09-5.055 0-9.152 4.07-9.152 9.09z" fill="#369CB7"/><path d="M19.474 3.177c-.028-.43-2.693-.483-3.33-2.026a1.844 1.844 0 01-.12-.45 3.07 3.07 0 00-1.308.785 2.84 2.84 0 00-.714 1.237 1.337 1.337 0 01-.594-.45 1.252 1.252 0 01-.238-.787 3.22 3.22 0 00-.714.786c-.686 1.088-.442 2.245-.355 2.588 6.065-.87 7.394-1.376 7.373-1.683z" fill="#369CB7"/><path d="M12.89 15.892c.502 2.339 3.547 3.64 6.8 2.906 3.255-.734 5.485-3.224 4.983-5.559-.503-2.339-3.547-3.64-6.804-2.905-3.25.73-5.483 3.22-4.979 5.558z" fill="#fff"/><path d="M11.785 11.553c.396 2.09 2.234 3.394 4.106 2.913 1.873-.48 3.072-2.563 2.675-4.652-.396-2.09-2.235-3.394-4.106-2.913-1.872.48-3.071 2.563-2.675 4.652z" fill="#fff"/><path d="M23.276 8.491c.394 2.097-.68 4.157-2.396 4.603-1.716.445-3.428-.895-3.82-2.992-.394-2.097.68-4.156 2.396-4.602 1.716-.446 3.425.891 3.82 2.991z" fill="#fff"/><path d="M9.249 16.481c-.608.12-1.246-.189-1.789-.807-.541-.616-.978-1.531-1.18-2.603-.203-1.07-.13-2.088.146-2.867.278-.781.758-1.314 1.366-1.436.607-.12 1.245.189 1.788.807.541.616.978 1.531 1.18 2.602.205 1.07.133 2.088-.143 2.868-.278.784-.758 1.316-1.368 1.436z" fill="#369CB7" stroke="#fff" stroke-width=".223"/><path d="M7.896 13.05c1.273 2.59 1.458 4.52 2.326 4.267.87-.253 1.102-3.01.82-5.184-.28-2.174-2.175-3.656-2.475-3.351-.3 0-.95 2.094-.67 4.268zm13.796 2.79c-.114.137-1.324 1.528-3.466 1.498-1.536-.021-2.972-.768-3.743-1.94.294.248 1.632 1.314 3.715 1.382a6.07 6.07 0 003.494-.94zm-3.881-1.63c.111.026.523.115 1.046.062.523-.054.816-.216.895-.261a13.58 13.58 0 01-1.94.198z" fill="#369CB7"/><path d="M26.053 12.084c.08-.043.188.014.196.133l.436 8.048c.002.069-.032.131-.085.157l-7.19 3.558v.001a.112.112 0 01-.092.006h-.001l-7.625-2.57h0c-.054-.017-.096-.072-.1-.145l-.437-8.052a.167.167 0 01.056-.138.12.12 0 01.123-.026h.001l7.597 2.631h.002c.058.02.12.016.175-.012l6.943-3.59z" fill="#369CB7" stroke="#fff" stroke-width=".255"/><path d="M19.277 23.717l-.358-7.324.527-.163.305 7.187-.474.3z" fill="#fff"/><path d="M12.089 12.61l-.039.343-.02-.02-.043-.321v-.265l5.546 2.219-5.411-1.975-.03-.011-.003.03zm14.041-.346l-.238-.749-5.585 3.605 5.592-3.19.02-.012.013.022.185.325h.013v-.002z" fill="#369CB7" stroke="#fff" stroke-width=".128"/><path d="M13.928 19.66c.013.69-.847 1.262-1.92 1.283-1.069.02-1.949-.521-1.962-1.211-.009-.69.847-1.263 1.92-1.284 1.073-.019 1.952.523 1.962 1.212z" fill="#369CB7"/><path d="M13.097 19.676c.006.38-.485.7-1.098.713-.612.012-1.112-.292-1.12-.673-.006-.381.485-.7 1.096-.713.612-.01 1.112.292 1.122.673z" fill="#fff"/><path d="M13.928 18.407c.012.767-.908 1.403-2.056 1.427-1.15.022-2.089-.582-2.103-1.345-.012-.764.908-1.403 2.056-1.427 1.15-.022 2.091.582 2.103 1.345z" fill="#369CB7"/><path d="M13.097 18.147c.005.46-.484.842-1.098.855-.614.013-1.115-.348-1.12-.807-.008-.46.483-.843 1.097-.856.611-.013 1.112.347 1.121.808z" fill="#fff"/><path d="M13.651 17.03c.013.611-.847 1.122-1.92 1.14-1.07.018-1.949-.464-1.962-1.077 0-.027 0-.055.004-.082.064-.573.891-1.04 1.913-1.058 1.076-.018 1.952.464 1.965 1.076z" fill="#369CB7"/><path d="M12.82 17.037c.006.457-.486.841-1.097.856-.458.01-1.034-.275-1.113-.71a.548.548 0 01-.009-.097c.006-.427.595-.844 1.097-.856.615-.012 1.115.349 1.122.807z" fill="#fff"/><path d="M11.152 15.12c-.188.086-.794.353-1.119.932a2.066 2.066 0 00-.264 1.01c.452-.327.902-.655 1.355-.985-.023-.315.048-.638.028-.957z" fill="#369CB7"/><path d="M11.14 16.627l-.47.712a2.506 2.506 0 01.017-1.23c.143-.496.408-.676.469-.711-.207.458-.259.915-.156 1.116a.217.217 0 00.14.113z" fill="#fff"/><path d="M24.468 17.89c.043.686.88 1.18 1.877 1.105.994-.074 1.767-.694 1.725-1.376-.043-.683-.88-1.18-1.873-1.105-.996.074-1.772.69-1.729 1.377z" fill="#369CB7"/><path d="M25.3 17.83c.024.38.54.656 1.153.614.61-.04 1.088-.385 1.063-.765-.024-.38-.54-.656-1.153-.613-.614.04-1.087.384-1.063.764z" fill="#fff"/><path d="M24.19 16.66c.05.76 1.015 1.31 2.164 1.225 1.148-.084 2.041-.77 1.993-1.53-.047-.76-1.017-1.311-2.163-1.226-1.149.088-2.04.77-1.993 1.53z" fill="#369CB7"/><path d="M24.745 16.322c.033.458.677.786 1.443.734.764-.051 1.36-.461 1.328-.919-.033-.458-.677-.786-1.443-.734-.765.051-1.357.461-1.328.92z" fill="#fff"/><path d="M24.468 15.239c.043.612.881 1.05 1.875.984.996-.066 1.768-.617 1.727-1.225 0-.027-.006-.055-.009-.082-.108-.567-.914-.962-1.866-.898-.997.062-1.77.61-1.727 1.221z" fill="#369CB7"/><path d="M25.3 15.21c.024.457.54.788 1.153.737.458-.037 1.012-.379 1.06-.822.003-.023.006-.053.003-.096-.037-.424-.653-.78-1.153-.737-.614.048-1.087.46-1.063.918z" fill="#fff"/><path d="M26.407 13.18c.21.063.84.284 1.275.895.298.42.369.831.389 1.045l-1.58-.924a6.114 6.114 0 01-.084-1.017z" fill="#369CB7"/><path d="M26.81 14.537c.22.192.442.39.66.583a1.553 1.553 0 00-.124-1.081 1.208 1.208 0 00-.661-.583c.306.383.41.783.292.97a.278.278 0 01-.167.11z" fill="#fff"/><path d="M16.689 11.785c.09.685-.332 1.304-.94 1.385-.606.082-1.168-.409-1.255-1.092-.089-.685.332-1.304.94-1.386.604-.081 1.17.408 1.255 1.093z" fill="#369CB7"/><path d="M15.585 11.297c.047.381-.168.725-.468.768-.305.044-.587-.227-.628-.608-.046-.382.168-.726.468-.769.305-.043.587.227.628.609z" fill="#fff"/><path d="M21.683 10.676c.076.685-.29 1.304-.822 1.385-.531.081-1.023-.409-1.099-1.094-.078-.684.29-1.303.82-1.384.531-.08 1.023.41 1.101 1.093z" fill="#369CB7"/><path d="M20.855 9.942c.046.23-.168.435-.468.461-.305.026-.587-.136-.629-.365-.046-.229.168-.435.468-.461.3-.026.583.136.629.365zm-8.868 2.682v.416l.554.14-.237-.417-.317-.139z" fill="#fff"/><path d="M11.987 12.624l3.698 1.47 3.234 1.304-6.782-2.625-.15-.149z" fill="#369CB7"/><path d="M24.494 12.788l-4.187 2.332 3.206-1.495 2.617-1.196-.196-.36-1.44.719z" fill="#fff"/><path d="M25.575 12.07l-3.55 1.766-3.105 1.562 6.522-3.178.133-.15z" fill="#369CB7"/><defs><clipPath id="clip0"><path fill="#fff" transform="translate(34.726 .423)" d="M0 0h139.208v23.571H0z"/></clipPath></defs></svg>