<svg width="174" height="25" viewBox="0 0 174 25" fill="none" xmlns="http://www.w3.org/2000/svg">
<g clip-path="url(#clip0)">
<path d="M42.1127 6.03851C40.3907 6.03851 38.9681 6.78724 37.9698 8.01017V6.338H34.7253V23.8084H37.9698V17.3942C38.9681 18.6172 40.3907 19.3659 42.1127 19.3659C45.6567 19.3659 48.3022 16.4958 48.3022 12.7022C48.3022 8.90864 45.6567 6.03851 42.1127 6.03851ZM41.4638 16.2212C39.4672 16.2212 37.9698 14.6988 37.9698 12.7022C37.9698 10.7056 39.4672 9.18318 41.4638 9.18318C43.4854 9.18318 44.9579 10.7056 44.9579 12.7022C44.9579 14.6988 43.4854 16.2212 41.4638 16.2212Z" fill="#369CB7"/>
<path d="M80.7342 15.9217C80.0354 15.9217 79.661 15.5224 79.661 14.8486V6.338H76.4166V8.01017C75.4182 6.78724 73.9957 6.03851 72.2736 6.03851C68.7296 6.03851 66.0591 8.90864 66.0591 12.7022C66.0591 16.4958 68.7296 19.3659 72.2736 19.3659C74.1205 19.3659 75.6429 18.4924 76.6412 17.0698C77.1154 18.3925 78.2634 19.0664 80.0604 19.0664H80.9838V15.9217H80.7342ZM72.8975 16.2212C70.9009 16.2212 69.4035 14.6988 69.4035 12.7022C69.4035 10.7056 70.9009 9.18318 72.8975 9.18318C74.9191 9.18318 76.4166 10.7056 76.4166 12.7022C76.4166 14.6988 74.9191 16.2212 72.8975 16.2212Z" fill="#369CB7"/>
<path d="M89.3293 19.3659C92.7235 19.3659 95.3691 17.1946 95.993 14.1747H92.5488C91.9998 15.3976 90.8018 16.2212 89.3293 16.2212C87.3327 16.2212 85.8352 14.6988 85.8352 12.7022C85.8352 10.7056 87.3327 9.18318 89.3293 9.18318C90.8018 9.18318 91.9998 10.0068 92.5488 11.2297H95.993C95.3691 8.20983 92.7235 6.03851 89.3293 6.03851C85.4359 6.03851 82.4909 8.90864 82.4909 12.7022C82.4909 16.4958 85.4359 19.3659 89.3293 19.3659Z" fill="#369CB7"/>
<path d="M105.478 9.30792V6.33796H102.533V2.94373H99.4634V5.3147C99.4634 5.98856 99.114 6.33796 98.4402 6.33796H97.2672V9.30792H99.2887V15.0482C99.2887 17.6687 100.811 19.0664 103.731 19.0664H105.478V16.0964H104.205C103.157 16.0964 102.533 15.4974 102.533 14.4991V9.30792H105.478Z" fill="#369CB7"/>
<path d="M109.857 4.46617C111.005 4.46617 111.904 3.59266 111.904 2.4446C111.904 1.29655 111.005 0.423035 109.857 0.423035C108.709 0.423035 107.811 1.29655 107.811 2.4446C107.811 3.59266 108.709 4.46617 109.857 4.46617ZM108.235 19.0664H111.48V6.338H108.235V19.0664Z" fill="#369CB7"/>
<path d="M122.357 9.30792V6.33796H119.412V2.94373H116.342V5.3147C116.342 5.98856 115.992 6.33796 115.319 6.33796H114.146V9.30792H116.167V15.0482C116.167 17.6687 117.69 19.0664 120.61 19.0664H122.357V16.0964H121.084C120.036 16.0964 119.412 15.4974 119.412 14.4991V9.30792H122.357Z" fill="#369CB7"/>
<path d="M138.44 15.9218C137.766 15.9218 137.367 15.5224 137.367 14.8486V10.9801C137.367 7.98523 135.395 6.03854 132.4 6.03854C130.728 6.03854 129.331 6.71239 128.357 8.01019V1.09692H125.113V19.0664H128.357V12.0783C128.357 10.3313 129.555 9.1832 131.352 9.1832C133.024 9.1832 134.122 10.3063 134.122 12.0284V15.5474C134.122 17.8685 135.37 19.0664 137.791 19.0664H138.715V15.9218H138.44Z" fill="#369CB7"/>
<path d="M142.437 4.46617C143.585 4.46617 144.484 3.59266 144.484 2.4446C144.484 1.29655 143.585 0.423035 142.437 0.423035C141.289 0.423035 140.391 1.29655 140.391 2.4446C140.391 3.59266 141.289 4.46617 142.437 4.46617ZM140.815 19.0664H144.059V6.338H140.815V19.0664Z" fill="#369CB7"/>
<path d="M160.776 15.9217C160.102 15.9217 159.703 15.5224 159.703 14.8486V10.9801C159.703 7.98521 157.731 6.03851 154.736 6.03851C153.064 6.03851 151.666 6.68741 150.693 7.91034V6.338H147.449V19.0664H150.693V12.0783C150.693 10.3312 151.891 9.18318 153.688 9.18318C155.36 9.18318 156.458 10.3063 156.458 12.0283V15.5474C156.458 17.8684 157.706 19.0664 160.127 19.0664H161.051V15.9217H160.776Z" fill="#369CB7"/>
<path fill-rule="evenodd" clip-rule="evenodd" d="M55.8896 6.49914C55.8764 6.42832 55.8598 6.34679 55.8389 6.25805C55.776 5.99009 55.656 5.57108 55.4279 5.17569C55.2142 4.80529 54.7476 4.19098 53.9008 4.05362C53.048 3.91536 52.3312 4.34416 51.821 4.80796C51.3245 5.25936 50.8939 5.8318 50.8006 6.54129C50.6986 7.31673 51.0384 7.91291 51.3817 8.27646C51.7013 8.6148 52.0748 8.81651 52.3048 8.92364C52.4303 8.98207 52.5411 9.0251 52.6234 9.05444C52.6466 9.06273 52.668 9.07008 52.6872 9.07649L50.4167 19.7979L53.1297 20.3724L55.4833 9.25785L60.9067 9.48072C60.7421 9.77217 60.5713 10.0821 60.4013 10.4016C59.9791 11.1952 59.5463 12.0771 59.228 12.8971C58.939 13.6417 58.6375 14.591 58.7235 15.4075C58.8359 16.4755 59.1504 17.5757 60.0835 18.4648C60.972 19.3114 62.2457 19.7948 63.8737 20.0926L65.2378 20.3421L65.7367 17.6143L64.3729 17.3648C62.9506 17.1046 62.3085 16.7544 61.9964 16.4571C61.729 16.2023 61.5583 15.8483 61.4813 15.1172C61.4814 15.118 61.4814 15.1185 61.4814 15.1185C61.4814 15.1185 61.4751 15.0427 61.4814 14.9817C61.4883 14.9152 61.5078 14.874 61.5348 14.7589C61.5895 14.5262 61.6823 14.2376 61.8132 13.9006C62.0749 13.2263 62.4509 12.4532 62.8496 11.704C63.6372 10.2235 64.4508 8.95142 64.4586 8.93925L64.4605 8.9362C64.4971 8.87963 64.6729 8.60609 64.6777 8.20821C64.6807 7.96346 64.618 7.66916 64.4281 7.39701C64.2451 7.13498 64.0129 6.99222 63.8407 6.91793C63.6247 6.82481 63.4287 6.80679 63.3202 6.80451L55.8896 6.49914Z" fill="#369CB7"/>
<path d="M165.808 0.977661H162.84V18.9472H165.808V15.1761C166.539 17.738 169.227 19.0369 172.012 19.5463L173.376 19.7958L173.875 17.068L172.511 16.8185C169.675 16.2998 168.387 14.9351 168.387 13.4759C168.387 13.0959 168.503 12.5769 168.747 11.9494C168.984 11.3374 169.31 10.7034 169.651 10.1175C169.989 9.53497 170.331 9.02195 170.587 8.6541C170.715 8.47086 170.821 8.32539 170.894 8.22727C170.93 8.17827 170.958 8.1412 170.976 8.11727C170.985 8.10531 170.992 8.09663 170.996 8.09142L171 8.08629L171.85 6.99073L173.239 5.41458H169.448L168.804 6.39211L168.796 6.40309C168.789 6.41219 168.779 6.42486 168.767 6.44092C168.743 6.47306 168.708 6.51884 168.665 6.57707C168.579 6.69343 168.458 6.85993 168.313 7.06666C168.026 7.47874 167.641 8.05762 167.254 8.72299C166.869 9.38495 166.468 10.1548 166.161 10.9467C166.027 11.2932 165.903 11.7127 165.808 12.1482V0.977661Z" fill="#369CB7"/>
</g>
<path d="M9.94593 18.3122C9.48694 17.5487 8.86638 16.977 8.17361 16.4495C7.45759 15.9036 6.67547 15.3406 5.82359 15.0578C5.03412 14.7971 4.06106 14.9004 3.27894 15.1426C2.52253 15.3762 1.97908 15.8471 1.69267 16.6192C1.40504 17.3938 1.3365 18.1548 1.96073 18.7671C2.53232 19.3277 3.37808 19.6929 4.15286 19.7543C4.38419 19.7728 4.99006 19.8134 5.15407 19.6056C5.34379 19.3658 5.28504 18.7044 5.22506 18.44C5.05738 17.6938 4.30953 17.0741 3.67551 17.7024C3.02313 18.3478 2.14554 17.1958 2.79303 16.5553C3.50538 15.8496 4.61185 15.8041 5.43559 16.3524C6.26299 16.9032 6.66201 17.9052 6.66323 18.8937C6.66323 19.9043 6.34745 20.7957 5.35113 21.0859C4.39643 21.3637 3.35483 21.1891 2.45031 20.7797C1.59598 20.3912 0.76735 19.7875 0.330392 18.906C-0.12003 17.9974 0.0611183 16.886 0.416071 15.9836C1.19819 13.9967 3.31199 13.3488 5.23853 13.4705C6.43802 13.5468 7.54204 14.2377 8.51755 14.925C9.4747 15.5987 10.4172 16.3745 11.0365 17.4061C11.5151 18.1991 10.4269 19.1126 9.94593 18.3122Z" fill="#369CB7"/>
<path d="M27.4842 10.2613C27.6781 11.9443 26.9821 13.3755 25.9279 13.4528C24.8737 13.5336 23.8606 12.2336 23.6667 10.5506C23.4728 8.86755 24.1687 7.43984 25.223 7.35903C26.2772 7.28056 27.2903 8.57826 27.4842 10.2613Z" fill="#369CB7"/>
<path d="M7.828 11.7306C7.828 16.7501 11.9888 20.1118 17.0443 20.1118C22.0998 20.1118 26.0227 17.4379 26.1287 11.7306C26.2236 6.71352 22.032 2.64148 16.9802 2.64148C11.9247 2.64148 7.828 6.71103 7.828 11.7306Z" fill="#369CB7"/>
<path d="M19.4738 3.17664C19.4463 2.74637 16.7812 2.69436 16.1437 1.15061C16.0636 0.954395 16.0349 0.785363 16.0236 0.700256C15.7611 0.779453 15.2074 0.983946 14.7161 1.48631C14.2461 1.96622 14.0698 2.4745 14.0023 2.72273C13.8886 2.679 13.616 2.55606 13.4085 2.27237C13.1648 1.93904 13.1648 1.59388 13.1698 1.48631C12.941 1.66717 12.6785 1.92485 12.456 2.27237C11.7697 3.35985 12.0135 4.51707 12.101 4.85986C18.1662 3.98988 19.495 3.48397 19.4738 3.17664Z" fill="#369CB7"/>
<path d="M12.8901 15.8921C13.3925 18.2309 16.4372 19.5317 19.6901 18.7978C22.9453 18.0639 25.1751 15.5744 24.6727 13.2393C24.1703 10.9005 21.1255 9.59968 17.869 10.3336C14.6199 11.0638 12.3864 13.5533 12.8901 15.8921Z" fill="white"/>
<path d="M11.7852 11.5533C12.1815 13.6422 14.0187 14.9467 15.8914 14.466C17.764 13.9853 18.9627 11.9025 18.5664 9.8135C18.1701 7.72455 16.3305 6.42003 14.4603 6.90077C12.5876 7.38151 11.3889 9.46432 11.7852 11.5533Z" fill="white"/>
<path d="M23.2755 8.49149C23.6697 10.5882 22.5953 12.648 20.8797 13.0935C19.1641 13.539 17.4522 12.1988 17.0604 10.102C16.6661 8.00525 17.7405 5.94552 19.4561 5.50001C21.1717 5.05449 22.8812 6.39103 23.2755 8.49149Z" fill="white"/>
<path d="M9.24882 16.481C8.64118 16.6018 8.00297 16.2923 7.4603 15.6744C6.9189 15.0578 6.48196 14.1427 6.27942 13.0709C6.07687 12.0004 6.14948 10.983 6.42591 10.2035C6.70362 9.42287 7.18387 8.89009 7.79151 8.76799C8.39915 8.64713 9.03736 8.95668 9.58003 9.57456C10.1214 10.1912 10.5584 11.1063 10.7609 12.1768C10.9647 13.2473 10.8934 14.2648 10.617 15.0454C10.3393 15.8286 9.85901 16.3614 9.24882 16.481Z" fill="#369CB7" stroke="white" stroke-width="0.223255"/>
<path d="M7.89625 13.0504C9.16895 15.6401 9.35371 17.5691 10.2216 17.3165C11.092 17.0638 11.3241 14.3076 11.0421 12.1333C10.7625 9.95897 8.86749 8.47736 8.56724 8.78182C8.267 8.78182 7.61668 10.876 7.89625 13.0504Z" fill="#369CB7"/>
<path d="M21.6925 15.8402C21.578 15.9768 20.3678 17.3684 18.2263 17.3383C16.6898 17.317 15.2544 16.5698 14.4825 15.3976C14.7771 15.6459 16.1151 16.7115 18.1983 16.7804C20.0598 16.8444 21.337 16.0721 21.6925 15.8402Z" fill="#369CB7"/>
<path d="M17.8112 14.2093C17.9221 14.2357 18.3345 14.3249 18.8566 14.2716C19.3799 14.2183 19.6725 14.0565 19.7524 14.011C19.4817 14.0583 19.1595 14.1057 18.796 14.1428C18.4364 14.1793 18.1012 14.1985 17.8112 14.2093Z" fill="#369CB7"/>
<path d="M26.0529 12.0841C26.133 12.0412 26.2414 12.0976 26.2488 12.2165L26.6849 20.265C26.6874 20.3337 26.6529 20.3962 26.5999 20.4219L19.4115 23.9798L19.4103 23.981C19.3831 23.9958 19.3487 23.9982 19.3191 23.9872H19.3179L11.6933 21.4171H11.6921C11.6391 21.3999 11.5972 21.3448 11.5923 21.2725L11.1562 13.2203C11.1525 13.1626 11.1759 13.1124 11.2116 13.0818C11.2461 13.0511 11.2905 13.0401 11.3348 13.056H11.3361L18.9335 15.6874H18.9347C18.9926 15.707 19.0554 15.7033 19.1097 15.6751L26.0529 12.0841Z" fill="#369CB7" stroke="white" stroke-width="0.255149"/>
<path d="M19.2767 23.7168L18.9195 16.393L19.4459 16.2295L19.7514 23.4173L19.2767 23.7168Z" fill="white"/>
<path d="M12.0889 12.6106L12.05 12.9526L12.0306 12.933L11.9868 12.6119V12.3471L17.5329 14.5656L12.1218 12.591L12.0926 12.58L12.0889 12.6106Z" fill="#369CB7" stroke="white" stroke-width="0.127574"/>
<path d="M26.1302 12.2635L25.8924 11.5153L20.3067 15.1203L25.8986 11.9299L25.9195 11.9183L25.9318 11.9401L26.1166 12.2648H26.1302V12.2635Z" fill="#369CB7" stroke="white" stroke-width="0.127574"/>
<path d="M13.9283 19.6599C13.9414 20.3498 13.0813 20.9224 12.0089 20.9431C10.9391 20.9638 10.0593 20.4215 10.0462 19.7316C10.037 19.0417 10.8932 18.4691 11.9656 18.4484C13.0394 18.4291 13.9178 18.9714 13.9283 19.6599Z" fill="#369CB7"/>
<path d="M13.0969 19.6756C13.1031 20.0565 12.6119 20.3761 11.9994 20.3886C11.3869 20.4011 10.8872 20.0966 10.8786 19.7157C10.8725 19.3347 11.3637 19.0152 11.9749 19.0026C12.5874 18.9939 13.0871 19.2946 13.0969 19.6756Z" fill="white"/>
<path d="M13.9283 18.4072C13.9404 19.1744 13.0201 19.8102 11.8722 19.8338C10.7218 19.8562 9.78343 19.2519 9.76898 18.4886C9.75693 17.7254 10.6772 17.0856 11.8252 17.062C12.9755 17.0396 13.9163 17.6439 13.9283 18.4072Z" fill="#369CB7"/>
<path d="M13.097 18.1468C13.1022 18.6062 12.6133 18.9894 11.9994 19.0023C11.3854 19.0152 10.8839 18.6539 10.8786 18.1946C10.8713 17.7352 11.3622 17.352 11.9762 17.3391C12.5871 17.3262 13.0885 17.6862 13.097 18.1468Z" fill="white"/>
<path d="M13.651 17.0294C13.6641 17.6414 12.804 18.1516 11.7316 18.17C10.6617 18.1884 9.78197 17.7064 9.76886 17.0932C9.76886 17.0662 9.76886 17.038 9.77279 17.011C9.83704 16.4382 10.6643 15.9709 11.6857 15.9525C12.7621 15.9354 13.6379 16.4174 13.651 17.0294Z" fill="#369CB7"/>
<path d="M12.8196 17.0366C12.8257 17.4942 12.3342 17.878 11.7227 17.8931C11.2655 17.9036 10.6894 17.6176 10.6098 17.1826C10.6061 17.16 10.6012 17.1299 10.6012 17.0863C10.6073 16.6588 11.1956 16.2418 11.6981 16.2298C12.3134 16.2177 12.8135 16.579 12.8196 17.0366Z" fill="white"/>
<path d="M11.1516 15.1203C10.9641 15.2059 10.3578 15.4727 10.0334 16.052C9.79992 16.4667 9.76886 16.858 9.76886 17.0615C10.2209 16.7346 10.6707 16.4066 11.124 16.0775C11.101 15.7618 11.1723 15.4394 11.1516 15.1203Z" fill="#369CB7"/>
<path d="M11.1395 16.6267C10.9835 16.866 10.8265 17.1024 10.6705 17.3388C10.6487 17.2548 10.5168 16.6936 10.6869 16.1097C10.8297 15.6127 11.0947 15.4332 11.1558 15.3976C10.9486 15.8562 10.8974 16.3134 10.9999 16.5142C11.0239 16.5569 11.0609 16.6053 11.1395 16.6267Z" fill="white"/>
<path d="M24.4681 17.8906C24.5108 18.5761 25.3484 19.0693 26.3445 18.9951C27.3394 18.9209 28.1124 18.3013 28.0697 17.6186C28.0271 16.9358 27.1894 16.4399 26.197 16.5141C25.2009 16.5882 24.4254 17.2037 24.4681 17.8906Z" fill="#369CB7"/>
<path d="M25.2996 17.8303C25.3241 18.2108 25.8397 18.4861 26.4534 18.4436C27.0634 18.4035 27.5409 18.0594 27.5163 17.6789C27.4918 17.2985 26.9763 17.0232 26.3625 17.0657C25.7488 17.1058 25.2763 17.4499 25.2996 17.8303Z" fill="white"/>
<path d="M24.1909 16.6592C24.2391 17.4191 25.2054 17.9697 26.3539 17.8847C27.5024 17.801 28.3951 17.1144 28.3468 16.3545C28.2998 15.5946 27.3298 15.0439 26.1838 15.129C25.0353 15.2166 24.1438 15.8993 24.1909 16.6592Z" fill="#369CB7"/>
<path d="M24.745 16.3221C24.7779 16.7798 25.4215 17.1076 26.1876 17.0562C26.9524 17.0048 27.5486 16.5947 27.5157 16.137C27.4828 15.6793 26.8392 15.3515 26.0731 15.403C25.3083 15.4544 24.716 15.8645 24.745 16.3221Z" fill="white"/>
<path d="M24.4681 15.239C24.5108 15.8508 25.3493 16.2889 26.3428 16.2229C27.3387 16.1568 28.1113 15.6061 28.0698 14.9979C28.0698 14.971 28.0637 14.9428 28.0613 14.9159C27.9527 14.3493 27.1471 13.9541 26.1951 14.0177C25.198 14.0801 24.4254 14.6283 24.4681 15.239Z" fill="#369CB7"/>
<path d="M25.2996 15.2105C25.3241 15.6675 25.8396 15.9982 26.4533 15.9471C26.9111 15.9095 27.4647 15.5683 27.5126 15.1248C27.5162 15.1023 27.5187 15.0722 27.5162 15.0286C27.4794 14.6047 26.8633 14.2485 26.3625 14.2921C25.7488 14.3402 25.2763 14.7521 25.2996 15.2105Z" fill="white"/>
<path d="M26.407 13.1791C26.6161 13.2429 27.2472 13.4639 27.6819 14.0747C27.9796 14.4941 28.0506 14.9064 28.0709 15.1203C27.545 14.8131 27.0178 14.5036 26.4907 14.1964C26.4653 14.0392 26.4425 13.8703 26.4286 13.6907C26.4121 13.5099 26.407 13.3386 26.407 13.1791Z" fill="#369CB7"/>
<path d="M26.8098 14.5366C27.0292 14.7295 27.2515 14.9261 27.4709 15.1202C27.492 15.0458 27.613 14.5366 27.3457 14.0387C27.1193 13.6152 26.7648 13.4841 26.6846 13.4564C26.9912 13.8395 27.0953 14.2391 26.9772 14.4257C26.9519 14.461 26.9068 14.5114 26.8098 14.5366Z" fill="white"/>
<path d="M16.689 11.785C16.7782 12.4698 16.3571 13.089 15.7499 13.1704C15.1428 13.2517 14.5809 12.7611 14.4944 12.0776C14.4053 11.3928 14.8264 10.7736 15.4335 10.6922C16.038 10.6109 16.6038 11.1002 16.689 11.785Z" fill="#369CB7"/>
<path d="M15.5854 11.2969C15.6316 11.6785 15.4175 12.022 15.1172 12.0654C14.8122 12.1088 14.5303 11.8381 14.4888 11.4565C14.4426 11.0748 14.6567 10.7313 14.957 10.688C15.262 10.6446 15.5438 10.9152 15.5854 11.2969Z" fill="white"/>
<path d="M21.6831 10.6764C21.7588 11.3609 21.3925 11.9798 20.8612 12.0611C20.3298 12.1424 19.838 11.652 19.7623 10.9675C19.6842 10.283 20.0528 9.66401 20.5819 9.58271C21.1133 9.50271 21.6051 9.99315 21.6831 10.6764Z" fill="#369CB7"/>
<path d="M20.8548 9.94224C20.901 10.1712 20.6869 10.3773 20.3865 10.4033C20.0816 10.4294 19.7997 10.267 19.7581 10.038C19.7119 9.80901 19.926 9.60292 20.2263 9.57689C20.5267 9.55087 20.8086 9.71325 20.8548 9.94224Z" fill="white"/>
<path d="M11.9868 12.6245V13.0405L12.5414 13.1791L12.3037 12.7632L11.9868 12.6245Z" fill="white"/>
<path d="M11.9868 12.6245L15.6848 14.0939L18.9194 15.3976L12.1371 12.7729L11.9868 12.6245Z" fill="#369CB7"/>
<path d="M24.4944 12.7876L20.3067 15.1202L23.5129 13.6249L26.1302 12.4287L25.9339 12.0698L24.4944 12.7876Z" fill="white"/>
<path d="M25.5749 12.0698L22.0243 13.8365L18.9195 15.3975L25.4424 12.2198L25.5749 12.0698Z" fill="#369CB7"/>
<defs>
<clipPath id="clip0">
<rect width="139.208" height="23.5711" fill="white" transform="translate(34.7257 0.423035)"/>
</clipPath>
</defs>
</svg>
